<svg width="20" height="20" viewBox="0 0 20 20" fill="none" xmlns="http://www.w3.org/2000/svg">
<g clip-path="url(#clip0_119007_4)">
<path d="M1.40583 18.5942C2.81167 20 5.0746 20 9.6 20H10.4C14.9254 20 17.1883 20 18.5942 18.5942C20 17.1883 20 14.9254 20 10.4V9.6C20 5.0746 20 2.81165 18.5942 1.40585C17.1883 -7.15256e-07 14.9254 0 10.4 0H9.6C5.0746 0 2.81167 -7.15256e-07 1.40583 1.40585C0 2.81165 0 5.0746 0 9.6V10.4C0 14.9254 0 17.1883 1.40583 18.5942ZM6.08335 16.625V14.3417C9.9 14.2667 11.5167 12.5833 11.85 11.25H6.08335V9.1H9.375C9.23335 7.78335 7.73335 6.4 6.08335 5.93335V3.78335C6.93906 3.95924 7.74924 4.30982 8.46335 4.81312C9.17741 5.31638 9.77996 5.96156 10.2333 6.70835C10.6473 5.87455 11.2335 5.13808 11.9532 4.54768C12.6729 3.95728 13.5097 3.52634 14.4083 3.28335V5.65C13.6278 5.86808 12.929 6.31188 12.3997 6.92567C11.8705 7.53942 11.5343 8.29585 11.4333 9.1H14.4083V9.35835C14.4083 13.9167 11.2833 16.5167 6.08335 16.625Z" fill="black"/>
</g>
<defs>
<clipPath id="clip0_119007_4">
<rect width="20" height="20" fill="white"/>
</clipPath>
</defs>
</svg>
